<?xml version="1.0" encoding="utf-8"?>
<svg version="1.1" xmlns:xlink="http://www.w3.org/1999/xlink" width="40px" height="40px" xmlns="http://www.w3.org/2000/svg">
  <g transform="matrix(1 0 0 1 -284 -30 )">
    <path d="M 16.6666666666667 30.9895833333333  C 17.1180555555556 30.9895833333333  17.5086805555556 30.8246527777778  17.8385416666667 30.4947916666667  L 33.828125 14.5052083333333  C 34.1579861111111 14.1753472222222  34.3229166666667 13.7847222222222  34.3229166666667 13.3333333333333  C 34.3229166666667 12.8819444444444  34.1579861111111 12.4913194444444  33.828125 12.1614583333333  L 31.171875 9.50520833333334  C 30.8420138888889 9.17534722222222  30.4513888888889 9.01041666666666  30 9.01041666666666  C 29.5486111111111 9.01041666666666  29.1579861111111 9.17534722222222  28.828125 9.50520833333334  L 16.6666666666667 21.6666666666667  L 11.171875 16.171875  C 10.8420138888889 15.8420138888889  10.4513888888889 15.6770833333333  10 15.6770833333333  C 9.54861111111111 15.6770833333333  9.15798611111111 15.8420138888889  8.828125 16.171875  L 6.171875 18.828125  C 5.84201388888889 19.1579861111111  5.67708333333333 19.5486111111111  5.67708333333333 20  C 5.67708333333333 20.4513888888889  5.84201388888889 20.8420138888889  6.171875 21.171875  L 15.4947916666667 30.4947916666667  C 15.8246527777778 30.8246527777778  16.2152777777778 30.9895833333333  16.6666666666667 30.9895833333333  Z M 37.7994791666667 2.20052083333333  C 39.2664930555556 3.66753472222222  40 5.43402777777777  40 7.5  L 40 32.5  C 40 34.5659722222222  39.2664930555556 36.3324652777778  37.7994791666667 37.7994791666667  C 36.3324652777778 39.2664930555556  34.5659722222222 40  32.5 40  L 7.5 40  C 5.43402777777778 40  3.66753472222222 39.2664930555556  2.20052083333333 37.7994791666667  C 0.733506944444444 36.3324652777778  0 34.5659722222222  0 32.5  L 0 7.5  C 0 5.43402777777777  0.733506944444444 3.66753472222222  2.20052083333333 2.20052083333333  C 3.66753472222222 0.733506944444442  5.43402777777778 0  7.5 0  L 32.5 0  C 34.5659722222222 0  36.3324652777778 0.733506944444442  37.7994791666667 2.20052083333333  Z " fill-rule="nonzero" fill="#ffffff" stroke="none" transform="matrix(1 0 0 1 284 30 )" />
  </g>
</svg>