<?xml version="1.0" encoding="utf-8"?>
<svg version="1.1" xmlns:xlink="http://www.w3.org/1999/xlink" width="30px" height="31px" xmlns="http://www.w3.org/2000/svg">
  <g transform="matrix(1 0 0 1 -30 -27 )">
    <path d="M 29.3376358695652 12.4258664955071  C 29.7792119565217 12.9232991014121  30 13.5235344458708  30 14.2265725288832  L 30 16.7734274711168  C 30 17.4764655541292  29.7792119565217 18.0767008985879  29.3376358695652 18.5741335044929  C 28.8960597826087 19.0715661103979  28.3220108695652 19.3202824133505  27.6154891304348 19  L 13.2676630434783 19  L 19.2391304347826 25.1700898587933  C 19.7554347826087 25.6476251604621  20.0135869565217 26.2445442875481  20.0135869565217 26.9608472400513  C 20.0135869565217 27.6771501925546  19.7554347826087 28.2740693196406  19.2391304347826 28.7516046213094  L 17.710597826087 30.2637997432606  C 17.2078804347826 30.7545999144202  16.5964673913043 31  15.8763586956522 31  C 15.1698369565217 31  14.5516304347826 30.7545999144202  14.0217391304348 30.2637997432606  L 0.754076086956522 17.290757381258  C 0.251358695652174 16.7999572100984  0 16.2030380830124  0 15.5  C 0 14.8102267864784  0.251358695652174 14.206675224647  0.754076086956522 13.6893453145058  L 14.0217391304348 0.75609756097561  C 14.5380434782609 0.252032520325201  15.15625 0  15.8763586956522 0  C 16.5828804347826 0  17.1942934782609 0.252032520325201  17.710597826087 0.75609756097561  L 19.2391304347826 2.22849807445443  C 19.7554347826087 2.73256311510483  20.0135869565217 3.33611467693624  20.0135869565217 4.03915275994865  C 20.0135869565217 4.74219084296106  19.7554347826087 5.34574240479247  19.2391304347826 5.84980744544288  L 13.2676630434783 12  L 27.6154891304348 12  C 28.3220108695652 11.6797175866496  28.8960597826087 11.9284338896021  29.3376358695652 12.4258664955071  Z " fill-rule="nonzero" fill="#ffffff" stroke="none" fill-opacity="0.792156862745098" transform="matrix(1 0 0 1 30 27 )" />
  </g>
</svg>