<?xml version="1.0" encoding="utf-8"?>
<svg version="1.1" xmlns:xlink="http://www.w3.org/1999/xlink" width="27px" height="29px" xmlns="http://www.w3.org/2000/svg">
  <g transform="matrix(1 0 0 1 -308 -113 )">
    <path d="M 26.3935546875 17.0960286458333  C 26.5048828125 17.2156032986111  26.560546875 17.3572048611111  26.560546875 17.5208333333333  C 26.560546875 17.5837673611111  26.5546875 17.6278211805556  26.54296875 17.6529947916667  C 25.79296875 21.0262586805556  24.22265625 23.7607421875  21.83203125 25.8564453125  C 19.44140625 27.9521484375  16.640625 29  13.4296875 29  C 11.71875 29  10.0634765625 28.6538628472222  8.4638671875 27.9615885416667  C 6.8642578125 27.2693142361111  5.4375 26.28125  4.18359375 24.9973958333333  L 1.916015625 27.4329427083333  C 1.693359375 27.6720920138889  1.4296875 27.7916666666667  1.125 27.7916666666667  C 0.8203125 27.7916666666667  0.556640625 27.6720920138889  0.333984375 27.4329427083333  C 0.111328125 27.1937934027778  0 26.9105902777778  0 26.5833333333333  L 0 18.125  C 0 17.7977430555556  0.111328125 17.5145399305556  0.333984375 17.275390625  C 0.556640625 17.0362413194444  0.8203125 16.9166666666667  1.125 16.9166666666667  L 9 16.9166666666667  C 9.3046875 16.9166666666667  9.568359375 17.0362413194444  9.791015625 17.275390625  C 10.013671875 17.5145399305556  10.125 17.7977430555556  10.125 18.125  C 10.125 18.4522569444444  10.013671875 18.7354600694444  9.791015625 18.974609375  L 7.3828125 21.5611979166667  C 8.21484375 22.3919270833333  9.158203125 23.0338541666667  10.212890625 23.4869791666667  C 11.267578125 23.9401041666667  12.36328125 24.1666666666667  13.5 24.1666666666667  C 15.0703125 24.1666666666667  16.53515625 23.7575954861111  17.89453125 22.939453125  C 19.25390625 22.1213107638889  20.34375 20.9947916666667  21.1640625 19.5598958333333  C 21.29296875 19.3459201388889  21.603515625 18.6095920138889  22.095703125 17.3509114583333  C 22.189453125 17.0614149305556  22.365234375 16.9166666666667  22.623046875 16.9166666666667  L 25.998046875 16.9166666666667  C 26.150390625 16.9166666666667  26.2822265625 16.9764539930556  26.3935546875 17.0960286458333  Z M 26.666015625 1.56705729166667  C 26.888671875 1.80620659722222  27 2.08940972222222  27 2.41666666666667  L 27 10.875  C 27 11.2022569444444  26.888671875 11.4854600694444  26.666015625 11.724609375  C 26.443359375 11.9637586805556  26.1796875 12.0833333333333  25.875 12.0833333333333  L 18 12.0833333333333  C 17.6953125 12.0833333333333  17.431640625 11.9637586805556  17.208984375 11.724609375  C 16.986328125 11.4854600694444  16.875 11.2022569444444  16.875 10.875  C 16.875 10.5477430555556  16.986328125 10.2645399305556  17.208984375 10.025390625  L 19.634765625 7.419921875  C 17.900390625 5.69552951388888  15.85546875 4.83333333333333  13.5 4.83333333333333  C 11.9296875 4.83333333333333  10.46484375 5.24240451388888  9.10546875 6.060546875  C 7.74609375 6.87868923611111  6.65625 8.00520833333333  5.8359375 9.44010416666667  C 5.70703125 9.65407986111111  5.396484375 10.3904079861111  4.904296875 11.6490885416667  C 4.810546875 11.9385850694444  4.634765625 12.0833333333333  4.376953125 12.0833333333333  L 0.87890625 12.0833333333333  C 0.7265625 12.0833333333333  0.5947265625 12.0235460069444  0.4833984375 11.9039713541667  C 0.3720703125 11.7843967013889  0.31640625 11.6427951388889  0.31640625 11.4791666666667  L 0.31640625 11.3470052083333  C 1.078125 7.97374131944444  2.66015625 5.2392578125  5.0625 3.1435546875  C 7.46484375 1.0478515625  10.27734375 0  13.5 0  C 15.2109375 0  16.875 0.349283854166668  18.4921875 1.0478515625  C 20.109375 1.74641927083333  21.544921875 2.73133680555555  22.798828125 4.00260416666667  L 25.083984375 1.56705729166667  C 25.306640625 1.32790798611111  25.5703125 1.20833333333333  25.875 1.20833333333333  C 26.1796875 1.20833333333333  26.443359375 1.32790798611111  26.666015625 1.56705729166667  Z " fill-rule="nonzero" fill="#ffffff" stroke="none" transform="matrix(1 0 0 1 308 113 )" />
  </g>
</svg>