<?xml version="1.0" encoding="utf-8"?>
<svg version="1.1" xmlns:xlink="http://www.w3.org/1999/xlink" width="22px" height="21px" xmlns="http://www.w3.org/2000/svg">
  <g transform="matrix(1 0 0 1 -70 -344 )">
    <path d="M 10.1437908496732 6.85929648241206  C 10.6318082788671 6.36683417085427  10.8758169934641 5.76884422110553  10.8758169934641 5.06532663316583  C 10.8758169934641 4.36180904522613  10.6318082788671 3.76381909547739  10.1437908496732 3.2713567839196  C 9.6557734204793 2.77889447236181  9.06318082788671 2.53266331658291  8.36601307189543 2.53266331658291  C 7.66884531590414 2.53266331658291  7.07625272331155 2.77889447236181  6.58823529411765 3.2713567839196  C 6.10021786492375 3.76381909547739  5.8562091503268 4.36180904522613  5.8562091503268 5.06532663316583  C 5.8562091503268 5.43467336683417  5.93899782135076 5.79962311557789  6.10457516339869 6.16017587939699  C 5.74727668845316 5.99309045226131  5.38562091503268 5.90954773869347  5.01960784313725 5.90954773869347  C 4.32244008714597 5.90954773869347  3.72984749455338 6.15577889447236  3.24183006535948 6.64824120603015  C 2.75381263616558 7.14070351758794  2.50980392156863 7.73869346733668  2.50980392156863 8.44221105527638  C 2.50980392156863 9.14572864321608  2.75381263616558 9.74371859296482  3.24183006535948 10.2361809045226  C 3.72984749455338 10.7286432160804  4.32244008714597 10.9748743718593  5.01960784313725 10.9748743718593  C 5.71677559912854 10.9748743718593  6.30936819172113 10.7286432160804  6.79738562091503 10.2361809045226  C 7.28540305010893 9.74371859296482  7.52941176470588 9.14572864321608  7.52941176470588 8.44221105527638  C 7.52941176470588 8.07286432160804  7.44662309368192 7.70791457286432  7.28104575163399 7.34736180904523  C 7.63834422657952 7.5144472361809  8 7.59798994974874  8.36601307189543 7.59798994974874  C 9.06318082788671 7.59798994974874  9.6557734204793 7.35175879396985  10.1437908496732 6.85929648241206  Z M 21.6274509803922 13.8109296482412  C 21.8758169934641 14.1011306532663  22 14.2814070351759  22 14.3517587939699  C 22 14.501256281407  21.7864923747277 14.7914572864322  21.359477124183 15.2223618090452  C 20.9324618736383 15.6532663316583  20.6448801742919 15.8687185929648  20.4967320261438 15.8687185929648  C 20.4183006535948 15.8687185929648  20.2941176470588 15.7983668341709  20.1241830065359 15.6576633165829  C 19.9542483660131 15.516959798995  19.7952069716776 15.3718592964824  19.6470588235294 15.2223618090452  C 19.4989106753813 15.072864321608  19.3311546840959 14.8969849246231  19.1437908496732 14.6947236180905  C 18.9564270152505 14.4924623115578  18.8496732026144 14.3781407035176  18.8235294117647 14.3517587939699  L 17.5686274509804 15.6180904522613  L 20.4444444444444 18.5201005025126  C 20.6884531590414 18.7663316582915  20.8104575163399 19.0653266331658  20.8104575163399 19.4170854271357  C 20.8104575163399 19.786432160804  20.640522875817 20.1425879396985  20.3006535947712 20.4855527638191  C 19.9607843137255 20.8285175879397  19.6078431372549 21  19.2418300653595 21  C 18.8932461873638 21  18.5969498910675 20.8768844221106  18.3529411764706 20.6306532663317  L 9.58169934640523 11.7795226130653  C 8.0479302832244 12.9315326633166  6.45751633986928 13.5075376884422  4.81045751633987 13.5075376884422  C 3.38997821350763 13.5075376884422  2.23311546840959 13.0568467336683  1.33986928104575 12.1554648241206  C 0.446623093681917 11.2540829145729  0 10.0866834170854  0 8.65326633165829  C 0 7.24623115577889  0.413943355119826 5.86997487437186  1.24183006535948 4.52449748743719  C 2.06971677559913 3.17902010050251  3.15032679738562 2.08856783919598  4.48366013071895 1.25314070351759  C 5.81699346405229 0.417713567839195  7.18082788671024 0  8.57516339869281 0  C 9.99564270152506 0  11.1525054466231 0.450690954773868  12.0457516339869 1.35207286432161  C 12.9389978213508 2.25345477386934  13.3856209150327 3.42085427135678  13.3856209150327 4.85427135678392  C 13.3856209150327 6.51633165829146  12.8148148148148 8.12123115577889  11.6732026143791 9.66896984924623  L 16.3137254901961 14.3517587939699  L 17.5686274509804 13.0854271356784  C 17.5424836601307 13.0590452261307  17.4291938997821 12.9513190954774  17.2287581699346 12.7622487437186  C 17.0283224400871 12.5731783919598  16.8540305010893 12.4038944723618  16.7058823529412 12.2543969849246  C 16.557734204793 12.1048994974874  16.4139433551198 11.9444095477387  16.2745098039216 11.7729271356784  C 16.1350762527233 11.6014447236181  16.0653594771242 11.4761306532663  16.0653594771242 11.3969849246231  C 16.0653594771242 11.2474874371859  16.2788671023965 10.9572864321608  16.7058823529412 10.5263819095477  C 17.1328976034858 10.0954773869347  17.4204793028322 9.88002512562814  17.5686274509804 9.88002512562814  C 17.681917211329 9.88002512562814  17.7821350762527 9.92399497487437  17.8692810457516 10.0119346733668  C 17.921568627451 10.0646984924623  18.1220043572985 10.260364321608  18.4705882352941 10.598932160804  C 18.8191721132898 10.9375  19.1764705882353 11.2870603015075  19.5424836601307 11.6476130653266  C 19.9084967320261 12.0081658291457  20.2854030501089 12.3863065326633  20.6732026143791 12.7820351758794  C 21.0610021786492 13.1777638190955  21.3790849673203 13.5207286432161  21.6274509803922 13.8109296482412  Z " fill-rule="nonzero" fill="#f99781" stroke="none" fill-opacity="0.654901960784314" transform="matrix(1 0 0 1 70 344 )" />
  </g>
</svg>