<?xml version="1.0" encoding="utf-8"?>
<svg version="1.1" xmlns:xlink="http://www.w3.org/1999/xlink" width="22px" height="21px" xmlns="http://www.w3.org/2000/svg">
  <g transform="matrix(1 0 0 1 -70 -306 )">
    <path d="M 16.6861979166667 9.76171875  C 16.8676215277778 9.96953125  16.9583333333333 10.215625  16.9583333333333 10.5  C 16.9583333333333 10.784375  16.8676215277778 11.03046875  16.6861979166667 11.23828125  L 8.89453125 20.16328125  C 8.71310763888889 20.37109375  8.49826388888889 20.475  8.25 20.475  C 8.00173611111111 20.475  7.78689236111111 20.37109375  7.60546875 20.16328125  C 7.42404513888889 19.95546875  7.33333333333333 19.709375  7.33333333333333 19.425  L 7.33333333333333 14.7  L 0.916666666666667 14.7  C 0.668402777777778 14.7  0.453559027777778 14.59609375  0.272135416666667 14.38828125  C 0.0907118055555556 14.18046875  0 13.934375  0 13.65  L 0 7.35  C 0 7.065625  0.0907118055555556 6.81953125  0.272135416666667 6.61171875  C 0.453559027777778 6.40390625  0.668402777777778 6.3  0.916666666666667 6.3  L 7.33333333333333 6.3  L 7.33333333333333 1.575  C 7.33333333333333 1.290625  7.42404513888889 1.04453125  7.60546875 0.836718749999999  C 7.78689236111111 0.628906249999999  8.00173611111111 0.525  8.25 0.525  C 8.49826388888889 0.525  8.71310763888889 0.628906249999999  8.89453125 0.836718749999999  L 16.6861979166667 9.76171875  Z M 20.7897135416667 1.386328125  C 21.5965711805556 2.310546875  22 3.4234375  22 4.725  L 22 16.275  C 22 17.5765625  21.5965711805556 18.689453125  20.7897135416667 19.613671875  C 19.9828559027778 20.537890625  19.0112847222222 21  17.875 21  L 13.2916666666667 21  C 13.1675347222222 21  13.0601128472222 20.948046875  12.9694010416667 20.844140625  C 12.8786892361111 20.740234375  12.8333333333333 20.6171875  12.8333333333333 20.475  C 12.8333333333333 20.43125  12.8285590277778 20.321875  12.8190104166667 20.146875  C 12.8094618055556 19.971875  12.8070746527778 19.826953125  12.8118489583333 19.712109375  C 12.8166232638889 19.597265625  12.8309461805556 19.46875  12.8548177083333 19.3265625  C 12.8786892361111 19.184375  12.9264322916667 19.077734375  12.998046875 19.006640625  C 13.0696614583333 18.935546875  13.1675347222222 18.9  13.2916666666667 18.9  L 17.875 18.9  C 18.5052083333333 18.9  19.0447048611111 18.64296875  19.4934895833333 18.12890625  C 19.9422743055556 17.61484375  20.1666666666667 16.996875  20 16.275  L 20 4.725  C 20.1666666666667 4.003125  19.9422743055556 3.38515625  19.4934895833333 2.87109375  C 19.0447048611111 2.35703125  18.5052083333333 2.1  17.875 2.1  L 13.75 2.1  L 13.5924479166667 2.1  L 13.40625 2.1  C 13.40625 2.1  13.3513454861111 2.09453125  13.2415364583333 2.08359375  C 13.1317274305556 2.07265625  13.0768229166667 2.05625  13.0768229166667 2.034375  C 13.0768229166667 2.0125  13.0386284722222 1.982421875  12.9622395833333 1.944140625  C 12.8858506944444 1.905859375  12.8524305555556 1.856640625  12.8619791666667 1.796484375  C 12.8715277777778 1.736328125  12.8619791666667 1.6625  12.8333333333333 1.575  C 12.8333333333333 1.53125  12.8285590277778 1.421875  12.8190104166667 1.246875  C 12.8094618055556 1.071875  12.8070746527778 0.926953125000001  12.8118489583333 0.812109375  C 12.8166232638889 0.697265625  12.8309461805556 0.568749999999998  12.8548177083333 0.426562499999999  C 12.8786892361111 0.284374999999998  12.9264322916667 0.177734374999999  12.998046875 0.106640625000001  C 13.0696614583333 0.035546874999998  13.1675347222222 0  13.2916666666667 0  L 17.875 0  C 19.0112847222222 0  19.9828559027778 0.462109374999997  20.7897135416667 1.386328125  Z " fill-rule="nonzero" fill="#f99781" stroke="none" fill-opacity="0.654901960784314" transform="matrix(1 0 0 1 70 306 )" />
  </g>
</svg>