<?xml version="1.0" encoding="utf-8"?>
<svg version="1.1" xmlns:xlink="http://www.w3.org/1999/xlink" width="49px" height="68px" xmlns="http://www.w3.org/2000/svg">
  <g transform="matrix(1 0 0 1 -76 -347 )">
    <path d="M 10.240234375 49.9133522727273  C 10.4134114583333 50.2192234848485  10.5 50.5814393939394  10.5 51  L 10.5 54.0909090909091  C 10.5 54.5094696969697  10.4134114583333 54.8716856060606  10.240234375 55.1775568181818  C 10.0670572916667 55.483428030303  9.86197916666667 55.6363636363636  9.625 55.6363636363636  L 7.875 55.6363636363636  C 7.63802083333333 55.6363636363636  7.43294270833333 55.483428030303  7.259765625 55.1775568181818  C 7.08658854166667 54.8716856060606  7 54.5094696969697  7 54.0909090909091  L 7 51  C 7 50.5814393939394  7.08658854166667 50.2192234848485  7.259765625 49.9133522727273  C 7.43294270833333 49.6074810606061  7.63802083333333 49.4545454545455  7.875 49.4545454545455  L 9.625 49.4545454545455  C 9.86197916666667 49.4545454545455  10.0670572916667 49.6074810606061  10.240234375 49.9133522727273  Z M 10.240234375 37.5497159090909  C 10.4134114583333 37.8555871212121  10.5 38.217803030303  10.5 38.6363636363636  L 10.5 41.7272727272727  C 10.5 42.1458333333333  10.4134114583333 42.5080492424242  10.240234375 42.8139204545455  C 10.0670572916667 43.1197916666667  9.86197916666667 43.2727272727273  9.625 43.2727272727273  L 7.875 43.2727272727273  C 7.63802083333333 43.2727272727273  7.43294270833333 43.1197916666667  7.259765625 42.8139204545455  C 7.08658854166667 42.5080492424242  7 42.1458333333333  7 41.7272727272727  L 7 38.6363636363636  C 7 38.217803030303  7.08658854166667 37.8555871212121  7.259765625 37.5497159090909  C 7.43294270833333 37.2438446969697  7.63802083333333 37.0909090909091  7.875 37.0909090909091  L 9.625 37.0909090909091  C 9.86197916666667 37.0909090909091  10.0670572916667 37.2438446969697  10.240234375 37.5497159090909  Z M 10.240234375 25.1860795454545  C 10.4134114583333 25.4919507575758  10.5 25.8541666666667  10.5 26.2727272727273  L 10.5 29.3636363636364  C 10.5 29.782196969697  10.4134114583333 30.1444128787879  10.240234375 30.4502840909091  C 10.0670572916667 30.7561553030303  9.86197916666667 30.9090909090909  9.625 30.9090909090909  L 7.875 30.9090909090909  C 7.63802083333333 30.9090909090909  7.43294270833333 30.7561553030303  7.259765625 30.4502840909091  C 7.08658854166667 30.1444128787879  7 29.782196969697  7 29.3636363636364  L 7 26.2727272727273  C 7 25.8541666666667  7.08658854166667 25.4919507575758  7.259765625 25.1860795454545  C 7.43294270833333 24.8802083333333  7.63802083333333 24.7272727272727  7.875 24.7272727272727  L 9.625 24.7272727272727  C 9.86197916666667 24.7272727272727  10.0670572916667 24.8802083333333  10.240234375 25.1860795454545  Z M 41.740234375 49.9133522727273  C 41.9134114583333 50.2192234848485  42 50.5814393939394  42 51  L 42 54.0909090909091  C 42 54.5094696969697  41.9134114583333 54.8716856060606  41.740234375 55.1775568181818  C 41.5670572916667 55.483428030303  41.3619791666667 55.6363636363636  41.125 55  L 14.875 55  C 14.6380208333333 55.6363636363636  14.4329427083333 55.483428030303  14.259765625 55.1775568181818  C 14.0865885416667 54.8716856060606  14 54.5094696969697  14 54.0909090909091  L 14 51  C 14 50.5814393939394  14.0865885416667 50.2192234848485  14.259765625 49.9133522727273  C 14.4329427083333 49.6074810606061  14.6380208333333 49.4545454545455  14.875 49  L 41.125 49  C 41.3619791666667 49.4545454545455  41.5670572916667 49.6074810606061  41.740234375 49.9133522727273  Z M 41.740234375 37.5497159090909  C 41.9134114583333 37.8555871212121  42 38.217803030303  42 38.6363636363636  L 42 41.7272727272727  C 42 42.1458333333333  41.9134114583333 42.5080492424242  41.740234375 42.8139204545455  C 41.5670572916667 43.1197916666667  41.3619791666667 43.2727272727273  41.125 43  L 14.875 43  C 14.6380208333333 43.2727272727273  14.4329427083333 43.1197916666667  14.259765625 42.8139204545455  C 14.0865885416667 42.5080492424242  14 42.1458333333333  14 41.7272727272727  L 14 38.6363636363636  C 14 38.217803030303  14.0865885416667 37.8555871212121  14.259765625 37.5497159090909  C 14.4329427083333 37.2438446969697  14.6380208333333 37.0909090909091  14.875 37  L 41.125 37  C 41.3619791666667 37.0909090909091  41.5670572916667 37.2438446969697  41.740234375 37.5497159090909  Z M 41.740234375 25.1860795454545  C 41.9134114583333 25.4919507575758  42 25.8541666666667  42 26.2727272727273  L 42 29.3636363636364  C 42 29.782196969697  41.9134114583333 30.1444128787879  41.740234375 30.4502840909091  C 41.5670572916667 30.7561553030303  41.3619791666667 30.9090909090909  41.125 31  L 14.875 31  C 14.6380208333333 30.9090909090909  14.4329427083333 30.7561553030303  14.259765625 30.4502840909091  C 14.0865885416667 30.1444128787879  14 29.782196969697  14 29.3636363636364  L 14 26.2727272727273  C 14 25.8541666666667  14.0865885416667 25.4919507575758  14.259765625 25.1860795454545  C 14.4329427083333 24.8802083333333  14.6380208333333 24.7272727272727  14.875 25  L 41.125 25  C 41.3619791666667 24.7272727272727  41.5670572916667 24.8802083333333  41.740234375 25.1860795454545  Z M 45.240234375 61.359375  C 45.4134114583333 61.0535037878788  45.5 60.6912878787879  45 60.2727272727273  L 45 20.0909090909091  C 45.5 19.6723484848485  45.4134114583333 19.3101325757576  45.240234375 19.0042613636364  C 45.0670572916667 18.6983901515151  44.8619791666667 18.5454545454545  44.625 19  L 4.375 19  C 4.13802083333333 18.5454545454545  3.93294270833333 18.6983901515151  3.759765625 19.0042613636364  C 3.58658854166667 19.3101325757576  3.5 19.6723484848485  4 20.0909090909091  L 4 60.2727272727273  C 3.5 60.6912878787879  3.58658854166667 61.0535037878788  3.759765625 61.359375  C 3.93294270833333 61.6652462121212  4.13802083333333 61.8181818181818  4.375 61  L 44.625 61  C 44.8619791666667 61.8181818181818  45.0670572916667 61.6652462121212  45.240234375 61.359375  Z M 47.71484375 2.26988636363636  C 48.5716145833333 3.78314393939393  49 5.60227272727273  49 7.72727272727273  L 49 60.2727272727273  C 49 62.3977272727273  48.5716145833333 64.2168560606061  47.71484375 65.7301136363636  C 46.8580729166667 67.2433712121212  45.828125 68  44.625 68  L 4.375 68  C 3.171875 68  2.14192708333333 67.2433712121212  1.28515625 65.7301136363636  C 0.428385416666667 64.2168560606061  0 62.3977272727273  0 60.2727272727273  L 0 7.72727272727273  C 0 5.60227272727273  0.428385416666667 3.78314393939393  1.28515625 2.26988636363636  C 2.14192708333333 0.756628787878779  3.171875 0  4.375 0  L 44.625 0  C 45.828125 0  46.8580729166667 0.756628787878779  47.71484375 2.26988636363636  Z " fill-rule="nonzero" fill="#ffffff" stroke="none" transform="matrix(1 0 0 1 76 347 )" />
  </g>
</svg>