<?xml version="1.0" encoding="utf-8"?>
<svg version="1.1" xmlns:xlink="http://www.w3.org/1999/xlink" width="60px" height="64px" xmlns="http://www.w3.org/2000/svg">
  <g transform="matrix(1 0 0 1 -228 -354 )">
    <path d="M 56.9387755102041 12.7916666666667  C 57.8511404561825 13.2083333333333  58.5594237695078 13.8055555555556  59.0636254501801 14.5833333333333  C 60.0240096038415 16.1666666666667  60.2400960384154 17.9583333333333  59.7118847539016 19.9583333333333  L 49.8079231692677 57.7083333333333  C 49.3517406962785 59.4861111111111  48.4333733493397 60.9791666666667  47.0528211284514 62.1875  C 45.672268907563 63.3958333333333  44.2016806722689 64  42.641056422569 64  L 9.39975990396158 64  C 7.55102040816327 64  5.76830732292917 63.2569444444445  4.0516206482593 61.7708333333333  C 2.33493397358944 60.2847222222222  1.14045618247299 58.4583333333333  0.468187274909964 56.2916666666667  C -0.108043217286915 54.4305555555556  -0.132052821128451 52.6666666666667  0.396158463385354 51  C 0.396158463385354 50.8888888888889  0.432172869147659 50.5138888888889  0.504201680672269 49.875  C 0.576230492196879 49.2361111111111  0.624249699879952 48.7222222222222  0.648259303721489 48.3333333333333  C 0.672268907563025 48.1111111111111  0.63625450180072 47.8125  0.540216086434574 47.4375  C 0.444177671068427 47.0625  0.408163265306122 46.7916666666667  0.432172869147659 46.625  C 0.480192076830732 46.3194444444444  0.576230492196879 46.0277777777778  0.720288115246098 45.75  C 0.864345738295318 45.4722222222222  1.062424969988 45.1458333333333  1.31452581032413 44.7708333333333  C 1.56662665066026 44.3958333333333  1.76470588235294 44.0694444444444  1.90876350540216 43.7916666666667  C 2.4609843937575 42.7361111111111  3.00120048019208 41.4652777777778  3.52941176470588 39.9791666666667  C 4.05762304921969 38.4930555555556  4.41776710684274 37.2222222222222  4.60984393757503 36.1666666666667  C 4.68187274909964 35.8888888888889  4.68787515006002 35.4722222222222  4.62785114045618 34.9166666666667  C 4.56782713085234 34.3611111111111  4.56182472989196 33.9722222222222  4.60984393757503 33.75  C 4.68187274909964 33.4444444444444  4.8859543817527 33.0555555555556  5.22208883553421 32.5833333333333  C 5.55822328931573 32.1111111111111  5.76230492196879 31.7916666666667  5.8343337334934 31.625  C 6.33853541416567 30.625  6.84273709483794 29.3472222222222  7.3469387755102 27.7916666666667  C 7.85114045618247 26.2361111111111  8.15126050420168 24.9861111111111  8.24729891956783 24.0416666666667  C 8.27130852340936 23.7916666666667  8.24129651860744 23.3472222222222  8.15726290516207 22.7083333333333  C 8.07322929171669 22.0694444444444  8.07923169267707 21.6805555555556  8.17527010804322 21.5416666666667  C 8.27130852340936 21.1805555555556  8.53541416566627 20.7569444444444  8.96758703481393 20.2708333333333  C 9.39975990396158 19.7847222222222  9.66386554621849 19.4722222222222  9.75990396158463 19.3333333333333  C 10.2160864345738 18.6111111111111  10.7262905162065 17.4375  11.2905162064826 15.8125  C 11.8547418967587 14.1875  12.1848739495798 12.8472222222222  12.280912364946 11.7916666666667  C 12.3049219687875 11.5694444444444  12.2689075630252 11.2152777777778  12.1728691476591 10.7291666666667  C 12.0768307322929 10.2430555555556  12.0528211284514 9.875  12.1008403361345 9.625  C 12.1488595438175 9.40277777777777  12.2569027611044 9.15277777777777  12.4249699879952 8.875  C 12.593037214886 8.59722222222222  12.8091236494598 8.27777777777777  13.0732292917167 7.91666666666666  C 13.3373349339736 7.55555555555555  13.5414165666267 7.26388888888889  13.6854741896759 7.04166666666666  C 13.8775510204082 6.70833333333334  14.0756302521008 6.28472222222222  14.2797118847539 5.77083333333334  C 14.483793517407 5.25694444444444  14.6638655462185 4.77083333333334  14.8199279711885 4.3125  C 14.9759903961585 3.85416666666666  15.1680672268908 3.35416666666666  15.3961584633854 2.8125  C 15.62424969988 2.27083333333334  15.8583433373349 1.82638888888889  16.0984393757503 1.47916666666666  C 16.3385354141657 1.13194444444444  16.656662665066 0.80555555555555  17.0528211284514 0.5  C 17.4489795918367 0.194444444444436  17.8811524609844 0.0347222222222214  18.3493397358944 0.0208333333333357  C 18.8175270108043 0.00694444444443576  19.3877551020408 0.0833333333333357  20.0600240096038 0.25  L 20.0240096038415 0.375  C 20.9363745498199 0.125  21.5486194477791 0  21.8607442977191 0  L 49.2677070828331 0  C 51.0444177671069 0  52.4129651860744 0.777777777777771  53.3733493397359 2.33333333333334  C 54.3337334933974 3.88888888888889  54.5498199279712 5.69444444444444  54.0216086434574 7.75  L 44.1536614645858 45.5  C 43.2893157262905 48.8055555555556  42.4309723889556 50.9375  41.578631452581 51.8958333333333  C 40.7262905162065 52.8541666666667  39.1836734693877 53.3333333333333  36.9507803121248 53  L 5.65426170468187 53  C 5.00600240096038 53.3333333333333  4.54981992797119 53.5416666666667  4.28571428571429 53.9583333333333  C 4.02160864345738 54.4027777777778  4.00960384153661 55  4.24969987995198 55.75  C 4.82593037214886 57.6944444444445  6.5546218487395 58.6666666666667  9.43577430972389 58  L 42.6770708283313 58  C 43.3733493397359 58.6666666666667  44.0456182472989 58.4513888888889  44.6938775510204 58.0208333333333  C 45.3421368547419 57.5902777777778  45.7623049219688 57.0138888888889  45.9543817527011 56.2916666666667  L 56.7587034813926 15.1666666666667  C 56.9267707082833 14.5555555555556  56.9867947178872 13.7638888888889  56.9387755102041 12.7916666666667  Z M 21.500600240096 12  L 20.7442977190876 14.6666666666667  C 20.6482593037215 15.0277777777778  20.672268907563 15.3402777777778  20.8163265306122 15.6041666666667  C 20.9603841536615 15.8680555555556  21.2004801920768 16  21.5366146458583 16  L 43.4333733493397 16  C 43.7454981992797 16  44.0516206482593 15.8680555555556  44.3517406962785 15.6041666666667  C 44.6518607442977 15.3402777777778  44.8499399759904 15.0277777777778  44.9459783913565 14.6666666666667  L 45.7022809123649 12  C 45.7983193277311 11.6388888888889  45.7743097238896 11.3263888888889  45.6302521008403 11.0625  C 45.4861944777911 10.7986111111111  45.2460984393758 10.6666666666667  44.9099639855942 11  L 23.0132052821128 11  C 22.7010804321729 10.6666666666667  22.3949579831933 10.7986111111111  22.0948379351741 11.0625  C 21.7947178871549 11.3263888888889  21.5966386554622 11.6388888888889  21.500600240096 12  Z M 18.5114045618247 22.6666666666667  L 17.7551020408163 25.3333333333333  C 17.6590636254502 25.6944444444444  17.6830732292917 26.0069444444444  17.8271308523409 26.2708333333333  C 17.9711884753902 26.5347222222222  18.2112845138055 26.6666666666667  18.547418967587 27  L 40.4441776710684 27  C 40.7563025210084 26.6666666666667  41.062424969988 26.5347222222222  41.3625450180072 26.2708333333333  C 41.6626650660264 26.0069444444444  41.8607442977191 25.6944444444444  41.9567827130852 25.3333333333333  L 42.7130852340936 22.6666666666667  C 42.8091236494598 22.3055555555556  42.7851140456182 21.9930555555556  42.641056422569 21.7291666666667  C 42.4969987995198 21.4652777777778  42.2569027611044 21.3333333333333  41.9207683073229 22  L 20.0240096038415 22  C 19.7118847539016 21.3333333333333  19.405762304922 21.4652777777778  19.1056422569028 21.7291666666667  C 18.8055222088836 21.9930555555556  18.6074429771909 22.3055555555556  18.5114045618247 22.6666666666667  Z " fill-rule="nonzero" fill="#ffffff" stroke="none" transform="matrix(1 0 0 1 228 354 )" />
  </g>
</svg>