<?xml version="1.0" encoding="utf-8"?>
<svg version="1.1" xmlns:xlink="http://www.w3.org/1999/xlink" width="59px" height="56px" xmlns="http://www.w3.org/2000/svg">
  <g transform="matrix(1 0 0 1 -228 -524 )">
    <path d="M 34.0709635416667 14.328125  C 34.3014322916667 14.546875  34.4166666666667 14.8263888888889  34 15.1666666666667  L 34 31.5  C 34.4166666666667 31.8402777777778  34.3014322916667 32.1197916666667  34.0709635416667 32.3385416666667  C 33.8404947916667 32.5572916666667  33.5460069444445 32.6666666666667  33.1875 32  L 20.8958333333333 32  C 20.5373263888889 32.6666666666667  20.2428385416667 32.5572916666667  20.0123697916667 32.3385416666667  C 19.7819010416667 32.1197916666667  19.6666666666667 31.8402777777778  19.6666666666667 31.5  L 19.6666666666667 29.1666666666667  C 19.6666666666667 28.8263888888889  19.7819010416667 28.546875  20.0123697916667 28.328125  C 20.2428385416667 28.109375  20.5373263888889 28  20.8958333333333 28  L 29 28  L 29 15.1666666666667  C 29.5 14.8263888888889  29.615234375 14.546875  29.845703125 14.328125  C 30.076171875 14.109375  30.3706597222222 14  30.7291666666667 14  L 33.1875 14  C 33.5460069444445 14  33.8404947916667 14.109375  34.0709635416667 14.328125  Z M 47.591796875 37.953125  C 49.4611545138889 34.9149305555556  50.3958333333333 31.5972222222222  50.3958333333333 28  C 50.3958333333333 24.4027777777778  49.4611545138889 21.0850694444444  47.591796875 18.046875  C 45.7224392361111 15.0086805555556  43.1872829861111 12.6024305555556  39.986328125 10.828125  C 36.7853732638889 9.05381944444444  33.2899305555556 8.16666666666667  29.5 8.16666666666667  C 25.7100694444444 8.16666666666667  22.2146267361111 9.05381944444444  19.013671875 10.828125  C 15.8127170138889 12.6024305555556  13.2775607638889 15.0086805555556  11.408203125 18.046875  C 9.53884548611111 21.0850694444444  8.60416666666667 24.4027777777778  8.60416666666667 28  C 8.60416666666667 31.5972222222222  9.53884548611111 34.9149305555556  11.408203125 37.953125  C 13.2775607638889 40.9913194444444  15.8127170138889 43.3975694444444  19.013671875 45.171875  C 22.2146267361111 46.9461805555556  25.7100694444444 47.8333333333333  29.5 47.8333333333333  C 33.2899305555556 47.8333333333333  36.7853732638889 46.9461805555556  39.986328125 45.171875  C 43.1872829861111 43.3975694444444  45.7224392361111 40.9913194444444  47.591796875 37.953125  Z M 55.0436197916667 13.9453125  C 57.6812065972222 18.2352430555556  59 22.9201388888889  59 28  C 59 33.0798611111111  57.6812065972222 37.7647569444444  55.0436197916667 42.0546875  C 52.4060329861111 46.3446180555556  48.8273654513889 49.7413194444444  44.3076171875 52.2447916666667  C 39.7878689236111 54.7482638888889  34.8519965277778 56  29.5 56  C 24.1480034722222 56  19.2121310763889 54.7482638888889  14.6923828125 52.2447916666667  C 10.1726345486111 49.7413194444444  6.59396701388889 46.3446180555556  3.95638020833333 42.0546875  C 1.31879340277778 37.7647569444444  0 33.0798611111111  0 28  C 0 22.9201388888889  1.31879340277778 18.2352430555556  3.95638020833333 13.9453125  C 6.59396701388889 9.65538194444444  10.1726345486111 6.25868055555555  14.6923828125 3.75520833333333  C 19.2121310763889 1.25173611111111  24.1480034722222 0  29.5 0  C 34.8519965277778 0  39.7878689236111 1.25173611111111  44.3076171875 3.75520833333333  C 48.8273654513889 6.25868055555555  52.4060329861111 9.65538194444444  55.0436197916667 13.9453125  Z " fill-rule="nonzero" fill="#ffffff" stroke="none" transform="matrix(1 0 0 1 228 524 )" />
  </g>
</svg>