<?xml version="1.0" encoding="utf-8"?>
<svg version="1.1" xmlns:xlink="http://www.w3.org/1999/xlink" width="29px" height="36px" xmlns="http://www.w3.org/2000/svg">
  <g transform="matrix(1 0 0 1 -23 -31 )">
    <path d="M 28.5017182130584 2.16432865731463  C 28.8339060710195 2.40480961923847  29 2.6813627254509  29 2.9939879759519  C 29 3.3066132264529  28.8339060710195 3.58316633266533  28.5017182130584 3.82364729458918  L 8.9192439862543 18  L 28.5017182130584 32.1763527054108  C 28.8339060710195 32.4168336673347  29 32.6933867735471  29 33.0060120240481  C 29 33.3186372745491  28.8339060710195 33.5951903807615  28.5017182130584 33.8356713426854  L 26.0103092783505 35.6392785571142  C 25.6781214203895 35.8797595190381  25.2961053837343 36  24.8642611683849 36  C 24.4324169530355 36  24.0504009163803 35.8797595190381  23.7182130584192 35.6392785571142  L 0.498281786941581 18.8296593186373  C 0.166093928980527 18.5891783567134  0 18.312625250501  0 18  C 0 17.687374749499  0.166093928980527 17.4108216432866  0.498281786941581 17.1703406813627  L 23.7182130584192 0.360721442885772  C 24.0504009163803 0.120240480961923  24.4324169530355 0  24.8642611683849 0  C 25.2961053837343 0  25.6781214203895 0.120240480961923  26.0103092783505 0.360721442885772  L 28.5017182130584 2.16432865731463  Z " fill-rule="nonzero" fill="#ffffff" stroke="none" fill-opacity="0.729411764705882" transform="matrix(1 0 0 1 23 31 )" />
  </g>
</svg>