<?xml version="1.0" encoding="utf-8"?>
<svg version="1.1" xmlns:xlink="http://www.w3.org/1999/xlink" width="28px" height="27px" xmlns="http://www.w3.org/2000/svg">
  <g transform="matrix(1 0 0 1 -48 -144 )">
    <path d="M 19.796875 16.875  C 19.796875 17.02734375  19.7447916666667 17.162109375  19.640625 17.279296875  L 17.359375 19.845703125  C 17.2552083333333 19.962890625  17.1354166666667 20.021484375  17 20.021484375  C 16.8645833333333 20.021484375  16.7447916666667 19.962890625  16.640625 19.845703125  L 14 16.875  L 11.359375 19.845703125  C 11.2552083333333 19.962890625  11.1354166666667 20.021484375  11 20.021484375  C 10.8645833333333 20.021484375  10.7447916666667 19.962890625  10.640625 19.845703125  L 8.359375 17.279296875  C 8.25520833333333 17.162109375  8.203125 17.02734375  8.203125 16.875  C 8.203125 16.72265625  8.25520833333333 16.587890625  8.359375 16.470703125  L 11 13.5  L 8.359375 10.529296875  C 8.25520833333333 10.412109375  8.203125 10.27734375  8.203125 10.125  C 8.203125 9.97265625  8.25520833333333 9.837890625  8.359375 9.720703125  L 10.640625 7.154296875  C 10.7447916666667 7.037109375  10.8645833333333 6.978515625  11 6.978515625  C 11.1354166666667 6.978515625  11.2552083333333 7.037109375  11.359375 7.154296875  L 14 10.125  L 16.640625 7.154296875  C 16.7447916666667 7.037109375  16.8645833333333 6.978515625  17 6.978515625  C 17.1354166666667 6.978515625  17.2552083333333 7.037109375  17.359375 7.154296875  L 19.640625 9.720703125  C 19.7447916666667 9.837890625  19.796875 9.97265625  19.796875 10.125  C 19.796875 10.27734375  19.7447916666667 10.412109375  19.640625 10.529296875  L 17 13.5  L 19.640625 16.470703125  C 19.7447916666667 16.587890625  19.796875 16.72265625  19.796875 16.875  Z M 4 5  L 4 22  L 24 22  L 24 5  L 4 5  Z M 27.265625 0.826171875000001  C 27.7552083333333 1.376953125  28 2.0390625  28 2.8125  L 28 24.1875  C 28 24.9609375  27.7552083333333 25.623046875  27.265625 26.173828125  C 26.7760416666667 26.724609375  26.1875 27  25.5 27  L 2.5 27  C 1.8125 27  1.22395833333333 26.724609375  0.734375 26.173828125  C 0.244791666666667 25.623046875  0 24.9609375  0 24.1875  L 0 2.8125  C 0 2.0390625  0.244791666666667 1.376953125  0.734375 0.826171875000001  C 1.22395833333333 0.275390624999997  1.8125 0  2.5 0  L 25.5 0  C 26.1875 0  26.7760416666667 0.275390624999997  27.265625 0.826171875000001  Z " fill-rule="nonzero" fill="#7f7f7f" stroke="none" transform="matrix(1 0 0 1 48 144 )" />
  </g>
</svg>